<?xml version="1.0" standalone="no"?>
<!DOCTYPE svg PUBLIC "-//W3C//DTD SVG 20010904//EN"
 "http://www.w3.org/TR/2001/REC-SVG-20010904/DTD/svg10.dtd">
<svg version="1.0" xmlns="http://www.w3.org/2000/svg"
 width="740.000000pt" height="804.000000pt" viewBox="0 0 740.000000 804.000000"
 preserveAspectRatio="xMidYMid meet">

<g transform="translate(0.000000,804.000000) scale(0.100000,-0.100000)"
fill="#000000" stroke="none">
<path d="M1076 8032 c-2 -4 -24 -71 -50 -149 -81 -255 -141 -533 -178 -833
-20 -162 -17 -701 5 -865 46 -344 100 -541 265 -962 l16 -43 -34 -36 c-60 -61
-188 -152 -274 -194 -171 -83 -386 -115 -579 -88 -53 8 -97 13 -97 10 0 -9 58
-104 109 -177 101 -145 306 -332 453 -414 26 -14 48 -30 48 -34 0 -13 -179
-94 -260 -117 -101 -29 -295 -37 -405 -17 -44 8 -82 13 -84 11 -6 -5 80 -149
143 -237 189 -265 438 -483 729 -638 95 -50 99 -53 93 -81 -3 -16 -11 -101
-17 -188 -19 -278 16 -552 102 -815 76 -227 232 -516 387 -710 64 -81 195
-218 233 -246 l27 -19 -33 78 c-43 98 -65 208 -65 318 0 90 16 212 30 228 4 4
32 -27 61 -70 214 -319 533 -669 854 -938 254 -212 592 -455 950 -681 l197
-125 31 18 c89 50 644 426 785 531 508 381 909 786 1192 1204 51 77 75 105 81
95 14 -22 10 -294 -6 -404 -9 -57 -25 -139 -35 -181 -11 -42 -19 -78 -17 -79
7 -8 243 282 315 389 92 133 223 390 272 532 45 129 86 293 105 425 28 186 23
465 -11 632 -5 26 -1 30 71 63 90 41 240 137 345 222 180 145 411 412 523 603
45 77 46 82 24 76 -166 -41 -383 -31 -552 27 -86 30 -215 87 -214 96 0 3 40
25 89 49 190 91 360 258 503 492 25 41 44 76 43 78 -2 1 -25 -3 -52 -9 -27 -7
-112 -12 -189 -12 -112 0 -156 5 -220 22 -96 26 -201 74 -286 131 -70 48 -209
177 -209 194 0 6 21 63 46 126 89 226 168 542 211 840 25 178 25 757 0 944
-24 177 -61 363 -107 542 -34 131 -105 366 -116 386 -9 15 -432 -185 -661
-313 -398 -221 -714 -453 -999 -732 l-152 -148 -60 16 c-359 92 -1032 98
-1459 12 l-113 -23 -37 39 c-191 197 -523 468 -783 642 -270 180 -538 327
-795 435 -55 23 -119 50 -142 60 -24 11 -44 16 -47 12z m348 -440 c295 -152
548 -312 786 -496 136 -105 416 -384 509 -508 41 -54 79 -98 86 -98 6 0 45 11
86 25 513 176 1075 176 1621 0 59 -19 110 -35 113 -35 2 0 43 51 90 114 227
305 535 578 908 806 144 88 503 273 520 267 24 -8 114 -348 142 -537 16 -109
32 -390 22 -390 -8 0 -25 87 -42 225 -23 179 -60 349 -106 489 -34 104 -44
123 -58 117 -77 -34 -160 -76 -235 -120 -49 -28 -90 -51 -92 -51 -11 0 -276
-188 -364 -259 -227 -181 -502 -466 -670 -695 -24 -33 -82 -107 -129 -166 -47
-58 -117 -149 -155 -202 -39 -54 -71 -96 -73 -94 -6 5 48 129 113 257 35 71
64 133 64 137 0 12 -251 69 -415 93 -282 42 -784 34 -1025 -16 -36 -7 -102
-19 -148 -26 -113 -17 -121 -24 -89 -75 31 -49 89 -164 133 -264 l33 -75 -32
39 c-110 134 -184 221 -249 292 -41 44 -100 115 -132 158 -71 96 -335 367
-475 489 -199 171 -427 331 -710 497 -106 62 -168 93 -172 86 -9 -16 -75 -296
-93 -396 -32 -177 -64 -518 -66 -702 0 -10 -4 -18 -10 -18 -25 0 -7 547 26
775 29 208 86 445 106 445 6 0 88 -40 182 -88z m99 -438 c146 -117 304 -264
385 -358 109 -124 171 -200 168 -204 -2 -1 -34 16 -72 39 -83 51 -240 127
-347 168 l-78 30 77 -82 c87 -93 162 -195 206 -282 32 -62 78 -178 78 -195 0
-6 -28 4 -62 21 -72 36 -271 120 -275 116 -1 -2 13 -37 33 -78 55 -113 114
-309 114 -375 0 -29 -116 65 -149 121 -11 18 -12 17 -7 -10 44 -259 44 -300 2
-390 l-24 -50 -26 58 c-61 134 -119 372 -148 597 -21 166 -17 665 6 810 17
112 22 130 32 130 3 0 42 -30 87 -66z m4462 -49 c37 -168 44 -214 55 -352 17
-225 -9 -508 -66 -708 -37 -131 -135 -429 -144 -439 -5 -4 -18 35 -30 87 -18
80 -21 118 -18 240 1 80 0 143 -4 141 -5 -3 -31 -43 -60 -90 -28 -47 -56 -88
-62 -91 -14 -9 1 152 20 217 24 79 77 180 129 244 25 31 42 56 38 56 -27 0
-261 -82 -422 -148 -32 -12 157 316 253 441 34 44 35 48 14 42 -40 -12 -230
-116 -318 -174 -47 -31 -91 -60 -98 -65 -20 -12 102 167 172 254 75 92 180
198 266 270 84 69 242 172 251 162 3 -4 14 -43 24 -87z m-1856 -651 c3 -2 0
-9 -6 -15 -8 -8 -17 -5 -33 11 l-23 23 29 -7 c16 -4 31 -10 33 -12z m-62 -24
c3 -11 9 -17 14 -14 5 3 9 1 9 -4 0 -5 -14 -12 -31 -16 -22 -4 -30 -10 -25
-21 3 -8 2 -15 -2 -15 -13 0 -32 23 -32 39 0 11 3 12 12 3 14 -14 38 2 38 25
0 11 -4 12 -22 2 -21 -11 -22 -11 -9 4 18 23 42 21 48 -3z m-960 4 c-3 -3 -12
-4 -19 -1 -8 3 -5 6 6 6 11 1 17 -2 13 -5z m-36 -20 c12 -14 11 -16 -5 -13
-11 2 -21 10 -24 17 -5 17 13 15 29 -4z m-46 -5 c12 -19 -5 -23 -22 -6 -16 16
-16 17 -1 17 9 0 20 -5 23 -11z m-28 -24 c8 -22 -6 -33 -17 -15 -13 20 -12 30
0 30 6 0 13 -7 17 -15z m985 -42 c27 -24 22 -36 -7 -17 -14 9 -25 20 -25 25 0
14 11 11 32 -8z m957 -142 c142 -72 298 -180 402 -278 150 -143 250 -279 389
-528 163 -291 256 -400 454 -533 139 -93 313 -172 481 -218 l80 -22 -95 -45
c-114 -54 -258 -100 -360 -117 -41 -7 -92 -15 -113 -18 l-37 -7 29 -62 c120
-254 387 -466 646 -515 36 -7 64 -17 62 -23 -14 -43 -333 -265 -482 -336 -101
-48 -253 -99 -293 -99 -12 0 -22 -5 -22 -11 0 -5 13 -60 30 -122 49 -184 63
-295 64 -482 0 -230 -33 -411 -115 -629 l-20 -56 -61 83 c-34 45 -105 127
-158 181 l-96 99 -33 -94 c-117 -338 -367 -702 -741 -1079 -159 -160 -348
-326 -412 -361 -15 -8 -13 3 11 68 70 189 112 447 110 663 -1 63 -3 104 -5 90
-2 -14 -9 -59 -15 -100 -13 -98 -23 -129 -71 -225 -78 -156 -230 -354 -438
-569 -115 -120 -296 -279 -377 -333 l-52 -35 -33 23 c-136 97 -415 360 -562
529 -183 210 -269 351 -316 520 l-27 94 -7 -84 c-15 -191 34 -434 124 -611 11
-21 18 -39 15 -39 -12 0 -366 321 -485 440 -258 257 -433 496 -579 786 -59
118 -141 316 -141 341 0 23 -16 14 -67 -40 -68 -72 -127 -161 -183 -279 l-48
-100 -30 79 c-81 210 -111 357 -119 573 -8 230 21 420 92 599 14 36 25 66 25
67 0 1 -15 6 -32 9 -149 33 -394 143 -553 250 -125 84 -260 195 -248 205 4 3
37 12 72 19 152 30 297 114 431 250 77 78 222 259 235 293 4 11 -22 19 -107
37 -137 28 -294 79 -408 133 l-85 39 110 29 c185 47 303 103 457 217 177 131
311 298 452 563 43 79 98 174 124 210 94 132 270 297 447 419 88 61 279 171
296 171 7 0 -36 -34 -96 -75 -198 -134 -395 -326 -510 -496 -24 -37 -92 -163
-149 -280 -113 -231 -172 -328 -275 -446 -119 -137 -315 -278 -457 -328 -74
-26 -73 -28 30 -45 127 -21 256 -23 326 -7 36 9 66 14 67 13 2 -1 14 -56 27
-122 14 -65 37 -153 51 -194 40 -113 139 -305 200 -392 52 -73 56 -76 82 -68
318 103 439 131 642 151 72 7 133 10 136 7 9 -8 -18 -120 -29 -123 -176 -45
-389 -137 -513 -219 -116 -78 -126 -90 -48 -55 189 84 515 199 566 199 8 0 21
-23 31 -58 9 -32 20 -65 23 -73 5 -13 -13 -24 -77 -49 -125 -50 -264 -122
-352 -184 l-79 -55 -76 52 c-104 71 -274 244 -347 352 -162 238 -259 486 -273
695 l-6 95 -80 -140 c-44 -77 -100 -165 -124 -195 -105 -132 -259 -271 -392
-352 -38 -24 -69 -46 -69 -50 0 -12 145 -104 240 -151 109 -53 296 -109 452
-135 l107 -17 -30 -45 c-74 -109 -139 -276 -166 -424 -23 -128 -22 -381 1
-511 10 -55 20 -102 22 -104 3 -3 19 13 36 35 72 91 243 233 310 259 11 5 20
-13 38 -82 81 -314 248 -621 516 -953 147 -182 172 -208 184 -190 8 12 10 9
10 -15 0 -16 5 -37 10 -45 7 -10 8 7 4 55 -10 109 12 323 66 640 60 356 80
506 80 607 0 43 2 78 5 78 3 0 48 -29 99 -64 226 -156 676 -402 851 -465 l90
-33 50 17 c58 20 304 142 426 210 46 27 190 112 320 191 130 79 240 144 245
144 5 0 10 -37 12 -83 1 -45 20 -194 42 -332 70 -447 74 -486 75 -782 0 -150
1 -273 2 -273 2 0 16 26 32 57 16 32 59 92 95 135 347 410 547 763 648 1142
l13 49 167 -156 166 -156 15 62 c31 126 40 226 34 401 -3 94 -13 204 -21 245
-22 103 -71 254 -109 333 l-32 66 85 7 c217 18 475 123 636 259 l46 39 -73 27
c-229 84 -385 240 -547 548 l-59 113 -13 -78 c-29 -186 -132 -448 -235 -601
-100 -150 -349 -398 -458 -457 l-34 -18 -84 60 c-112 80 -207 135 -309 179
-47 20 -86 38 -88 39 -1 1 7 23 18 49 11 26 20 55 20 64 1 44 12 45 136 13
152 -41 259 -76 357 -118 101 -42 109 -42 27 3 -93 51 -257 120 -389 164 -62
21 -117 42 -121 47 -3 4 -12 28 -19 53 -7 25 -15 53 -17 63 -7 24 30 23 204
-8 228 -41 399 -97 536 -176 38 -21 70 -38 71 -37 1 2 22 37 47 78 122 202
201 460 215 698 3 56 10 102 14 102 5 0 41 -9 81 -19 40 -11 105 -23 145 -26
70 -7 293 12 293 24 0 3 -20 14 -45 24 -90 38 -258 159 -360 261 -131 130
-191 219 -318 462 -105 203 -186 333 -278 445 -127 156 -292 303 -440 393 -69
41 -112 76 -95 76 3 0 51 -22 105 -49z m226 -861 c16 -25 17 -179 2 -259 -54
-280 -295 -501 -547 -501 -105 0 -233 49 -310 118 -38 34 -42 44 -59 127 -17
84 -17 92 -2 119 37 66 267 272 247 220 -4 -10 -10 -35 -13 -54 -3 -28 -2 -32
7 -17 17 26 68 49 93 41 72 -21 91 -102 35 -149 -35 -30 -63 -28 -110 6 -25
17 -28 18 -28 3 0 -73 75 -174 143 -192 109 -30 219 74 234 221 5 49 3 56 -15
61 -31 10 -36 36 -13 67 l21 28 -44 65 -45 64 67 16 c95 22 105 23 224 25 61
0 109 -3 113 -9z m-2573 -29 c42 -11 91 -27 108 -36 34 -17 34 -16 -20 -90
-27 -38 -32 -61 -8 -37 39 39 128 -13 128 -75 0 -45 -9 -62 -41 -78 -39 -21
-72 -19 -103 6 l-26 20 0 -28 c0 -45 41 -115 88 -150 37 -28 52 -33 98 -33 30
0 68 7 83 15 92 47 132 190 80 286 -6 11 -9 23 -6 25 7 7 165 -145 186 -180
20 -31 20 -36 6 -114 -7 -44 -21 -94 -29 -110 -22 -43 -81 -91 -156 -126 -60
-29 -73 -31 -175 -31 -125 0 -184 15 -277 71 -118 72 -212 196 -264 349 -22
66 -28 103 -32 207 -4 117 -3 127 14 132 42 12 270 -3 346 -23z m-476 -311
c40 -153 141 -316 253 -407 197 -160 479 -198 689 -93 42 22 79 37 81 34 11
-11 -41 -50 -104 -79 -100 -46 -166 -60 -285 -59 -90 0 -117 5 -191 31 -273
95 -471 357 -486 645 -7 119 7 166 18 63 4 -38 15 -99 25 -135z m3212 73 c-6
-142 -36 -240 -106 -352 -169 -272 -470 -375 -787 -269 -33 11 -64 24 -70 30
-7 8 -4 9 10 4 110 -40 282 -49 390 -21 148 38 299 142 390 269 83 117 155
305 155 406 0 34 6 50 18 50 3 0 2 -53 0 -117z m-1555 33 c4 -11 3 -24 -3 -30
-8 -8 -9 -6 -4 8 5 12 4 17 -3 13 -6 -4 -18 2 -28 13 -18 20 -18 20 6 18 13
-2 28 -12 32 -22z m-543 -759 c0 -28 -9 -83 -20 -122 -15 -52 -18 -77 -11
-103 26 -91 116 -188 275 -294 50 -33 104 -72 119 -87 61 -55 74 -124 35 -181
-43 -61 -261 -172 -445 -225 -99 -29 -101 -29 -221 63 -59 45 -162 156 -162
175 0 11 115 53 240 88 74 21 124 38 110 38 -47 1 -165 -19 -273 -45 -59 -15
-110 -24 -113 -21 -3 3 -16 36 -29 73 -18 51 -21 70 -12 75 12 7 137 22 282
36 l80 7 -50 7 c-27 4 -112 8 -187 8 l-137 1 16 53 c38 129 132 268 232 341
61 45 253 166 264 166 4 0 7 -24 7 -53z m1058 -11 c173 -114 304 -254 371
-397 48 -101 50 -99 -81 -100 -62 -1 -138 -4 -168 -8 l-55 -7 80 -7 c144 -13
260 -28 268 -36 9 -9 -17 -99 -36 -125 -13 -18 -17 -18 -125 8 -67 16 -153 29
-214 31 l-103 5 105 -24 c127 -29 264 -66 280 -76 17 -10 -52 -100 -121 -160
-59 -50 -176 -130 -190 -130 -23 0 -273 96 -353 137 -113 56 -160 93 -179 142
-32 79 -4 118 174 241 169 117 269 237 269 322 0 18 -9 62 -21 98 -14 45 -18
78 -14 108 3 23 9 42 11 42 3 0 49 -29 102 -64z m-383 -136 c83 -12 100 -24
59 -42 -42 -18 -454 -18 -514 0 -33 11 -40 16 -29 23 47 26 352 37 484 19z
m867 -671 c138 -54 462 -236 581 -325 88 -67 277 -255 277 -276 0 -7 -37 26
-83 74 -78 82 -180 169 -295 252 l-53 38 -67 -30 c-91 -42 -186 -81 -252 -104
-76 -27 -253 -78 -257 -74 -2 1 17 50 41 107 68 159 65 163 -29 39 -338 -442
-595 -632 -884 -656 -316 -27 -674 221 -974 673 -34 51 -63 90 -65 88 -7 -6
29 -118 59 -184 16 -35 27 -66 25 -69 -16 -16 -370 91 -487 147 l-66 32 -129
-87 c-71 -48 -171 -119 -223 -158 -138 -105 -172 -129 -177 -123 -6 5 257 213
388 307 188 133 402 257 560 323 l37 16 48 -67 c26 -37 81 -101 123 -142 85
-85 223 -200 239 -200 6 0 75 30 153 66 317 147 412 173 525 145 26 -7 153
-58 280 -113 l233 -100 42 33 c133 103 261 236 333 347 15 23 31 42 36 42 5 0
32 -9 61 -21z"/>
</g>
</svg>
